<?xml version="1.0" encoding="UTF-8" standalone="no"?>
<!-- Created with Inkscape (http://www.inkscape.org/) -->

<svg
   version="1.1"
   id="svg62"
   width="512"
   height="512"
   viewBox="0 0 512 512"
   sodipodi:docname="logo.svg"
   inkscape:version="1.2.2 (732a01da63, 2022-12-09)"
   xmlns:inkscape="http://www.inkscape.org/namespaces/inkscape"
   xmlns:sodipodi="http://sodipodi.sourceforge.net/DTD/sodipodi-0.dtd"
   xmlns="http://www.w3.org/2000/svg"
   xmlns:svg="http://www.w3.org/2000/svg">
  <defs
     id="defs66">
    <rect
       x="-242"
       y="58"
       width="628.16499"
       height="465.86716"
       id="rect928" />
  </defs>
  <sodipodi:namedview
     id="namedview64"
     pagecolor="#ffffff"
     bordercolor="#000000"
     borderopacity="0.25"
     inkscape:showpageshadow="2"
     inkscape:pageopacity="0.0"
     inkscape:pagecheckerboard="0"
     inkscape:deskcolor="#d1d1d1"
     showgrid="false"
     inkscape:zoom="0.5"
     inkscape:cx="159"
     inkscape:cy="334"
     inkscape:window-width="1920"
     inkscape:window-height="1057"
     inkscape:window-x="1912"
     inkscape:window-y="-8"
     inkscape:window-maximized="1"
     inkscape:current-layer="text926" />
  <g
     inkscape:groupmode="layer"
     inkscape:label="Image"
     id="g68"
     style="display:inline">
    <rect
       style="fill:#000000;stroke:none;stroke-width:8.79989;stroke-dasharray:none;stroke-opacity:1;fill-opacity:1"
       id="rect3237"
       width="512.00244"
       height="511.99405"
       x="0.00067817146"
       y="0.0053688576" />
    <g
       aria-label="damian
amodeo"
       transform="matrix(1.5111636,0,0,1.5111636,145.46158,-30.672225)"
       id="text926"
       style="font-size:96px;font-family:jw-icons;-inkscape-font-specification:jw-icons;white-space:pre;shape-inside:url(#rect928);shape-padding:2.64697">
      <path
         d="m -30.386719,155.47461 q 0,0.375 -0.1875,0.65625 -0.140625,0.28125 -0.5625,0.46875 -0.375,0.14062 -1.03125,0.23437 -0.65625,0.0937 -1.59375,0.0937 -0.984375,0 -1.640625,-0.0937 -0.65625,-0.0937 -1.078125,-0.23437 -0.421875,-0.1875 -0.609375,-0.46875 -0.1875,-0.28125 -0.1875,-0.65625 v -5.57813 q -3.328125,3.60938 -6.9375,5.625 -3.5625,2.01563 -7.828125,2.01563 -4.640625,0 -7.921875,-1.78125 -3.28125,-1.82813 -5.34375,-4.875 -2.015625,-3.09375 -2.953125,-7.21875 -0.9375,-4.17188 -0.9375,-8.76563 0,-5.4375 1.171875,-9.79687 1.171875,-4.40625 3.46875,-7.5 2.296875,-3.09375 5.671875,-4.73438 3.421875,-1.6875 7.875,-1.6875 3.703125,0 6.75,1.64063 3.09375,1.59375 6.09375,4.73437 V 93.037109 q 0,-0.328125 0.140625,-0.609375 0.1875,-0.328125 0.65625,-0.46875 0.46875,-0.1875 1.171875,-0.28125 0.75,-0.140625 1.875,-0.140625 1.171875,0 1.921875,0.140625 0.75,0.09375 1.171875,0.28125 0.421875,0.140625 0.609375,0.46875 0.234375,0.28125 0.234375,0.609375 z m -7.78125,-29.67188 q -3.140625,-3.89062 -6.09375,-5.90625 -2.90625,-2.0625 -6.09375,-2.0625 -2.953125,0 -5.015625,1.40625 -2.0625,1.40625 -3.375,3.70313 -1.265625,2.29687 -1.875,5.20312 -0.5625,2.90625 -0.5625,5.90625 0,3.1875 0.46875,6.23438 0.515625,3.04687 1.734375,5.4375 1.21875,2.34375 3.234375,3.79687 2.015625,1.40625 5.0625,1.40625 1.546875,0 2.953125,-0.42187 1.453125,-0.42188 2.953125,-1.40625 1.5,-0.98438 3.140625,-2.53125 1.640625,-1.59375 3.46875,-3.89063 z"
         style="font-family:Calibri;-inkscape-font-specification:Calibri;text-align:center;text-anchor:middle;fill:#ffffff"
         id="path963" />
      <path
         d="m 15.691406,155.52148 q 0,0.5625 -0.375,0.84375 -0.375,0.28125 -1.03125,0.42188 -0.65625,0.14062 -1.921875,0.14062 -1.21875,0 -1.96875,-0.14062 -0.7031247,-0.14063 -1.0312497,-0.42188 -0.328125,-0.28125 -0.328125,-0.84375 v -4.21875 q -2.7656251,2.95313 -6.1875,4.59375 -3.37500005,1.64063 -7.171875,1.64063 -3.328125,0 -6.0468753,-0.89063 -2.671875,-0.84375 -4.59375,-2.48437 -1.875,-1.64063 -2.953125,-4.03125 -1.03125,-2.39063 -1.03125,-5.4375 0,-3.5625 1.453125,-6.1875 1.453125,-2.625 4.171875,-4.35938 2.71875,-1.73437 6.6562503,-2.57812 3.9374999,-0.89063 8.859375,-0.89063 h 5.8125 v -3.28125 q 0,-2.4375 -0.5156251,-4.3125 -0.515625,-1.875 -1.6875,-3.09375 -1.125,-1.26562 -2.9531249,-1.875 -1.8281251,-0.65625 -4.5,-0.65625 -2.859375,0 -5.15625,0.70313 -2.2500001,0.65625 -3.9843753,1.5 -1.6875,0.79687 -2.859375,1.5 -1.125,0.65625 -1.6875,0.65625 -0.375,0 -0.65625,-0.1875 -0.28125,-0.1875 -0.515625,-0.5625 -0.1875,-0.375 -0.28125,-0.9375 -0.09375,-0.60938 -0.09375,-1.3125 0,-1.17188 0.140625,-1.82813 0.1875,-0.70312 0.796875,-1.3125 0.65625,-0.60937 2.203125,-1.40625 1.546875,-0.84375 3.5625,-1.5 2.0156252,-0.70312 4.4062503,-1.125 2.3906249,-0.46875 4.82812495,-0.46875 4.54687505,0 7.73437495,1.03125 3.1875001,1.03125 5.1562498,3.04688 1.96875,1.96875 2.859375,4.92187 0.890625,2.95313 0.890625,6.89063 z M 8.0039063,136.25586 H 1.3945312 q -3.1874999,0 -5.5312499,0.5625 -2.34375,0.51562 -3.8906251,1.59375 -1.546875,1.03125 -2.2968752,2.53125 -0.703125,1.45312 -0.703125,3.375 0,3.28125 2.0625002,5.25 2.1093751,1.92187 5.859375,1.92187 3.04687505,0 5.6250001,-1.54687 2.6249999,-1.54688 5.484375,-4.73438 z"
         style="font-family:Calibri;-inkscape-font-specification:Calibri;text-align:center;text-anchor:middle;fill:#ffffff"
         id="path965" />
      <path
         d="m 92.472656,155.47461 q 0,0.375 -0.1875,0.65625 -0.1875,0.23437 -0.609375,0.42187 -0.421875,0.1875 -1.171875,0.28125 -0.75,0.0937 -1.875,0.0937 -1.171875,0 -1.921875,-0.0937 -0.75,-0.0937 -1.21875,-0.28125 -0.421875,-0.1875 -0.609375,-0.42187 -0.1875,-0.28125 -0.1875,-0.65625 v -25.64063 q 0,-2.67187 -0.46875,-4.875 -0.46875,-2.20312 -1.5,-3.79687 -1.03125,-1.59375 -2.625,-2.4375 -1.59375,-0.84375 -3.75,-0.84375 -2.671875,0 -5.390625,2.0625 -2.671875,2.0625 -5.90625,6.04687 v 29.48438 q 0,0.375 -0.1875,0.65625 -0.1875,0.23437 -0.65625,0.42187 -0.421875,0.1875 -1.171875,0.28125 -0.75,0.0937 -1.875,0.0937 -1.078125,0 -1.875,-0.0937 -0.75,-0.0937 -1.21875,-0.28125 -0.421875,-0.1875 -0.609375,-0.42187 -0.140625,-0.28125 -0.140625,-0.65625 v -25.64063 q 0,-2.67187 -0.515625,-4.875 -0.515625,-2.20312 -1.546875,-3.79687 -1.03125,-1.59375 -2.625,-2.4375 -1.546875,-0.84375 -3.703125,-0.84375 -2.671875,0 -5.390625,2.0625 -2.71875,2.0625 -5.90625,6.04687 v 29.48438 q 0,0.375 -0.1875,0.65625 -0.1875,0.23437 -0.609375,0.42187 -0.421875,0.1875 -1.171875,0.28125 -0.75,0.0937 -1.921875,0.0937 -1.125,0 -1.875,-0.0937 -0.75,-0.0937 -1.21875,-0.28125 -0.421875,-0.1875 -0.609375,-0.42187 -0.140625,-0.28125 -0.140625,-0.65625 v -42.1875 q 0,-0.375 0.140625,-0.60938 0.140625,-0.28125 0.5625,-0.46875 0.421875,-0.23437 1.078125,-0.28125 0.65625,-0.0937 1.734375,-0.0937 1.03125,0 1.6875,0.0937 0.703125,0.0469 1.078125,0.28125 0.375,0.1875 0.515625,0.46875 0.1875,0.23438 0.1875,0.60938 v 5.57812 q 3.5625,-3.98437 6.890625,-5.8125 3.375,-1.875 6.796875,-1.875 2.625,0 4.6875,0.60938 2.109375,0.60937 3.703125,1.73437 1.59375,1.07813 2.71875,2.625 1.125,1.5 1.875,3.375 2.109375,-2.29687 3.984375,-3.89062 1.921875,-1.59375 3.65625,-2.57813 1.78125,-0.98437 3.421875,-1.40625 1.6875,-0.46875 3.375,-0.46875 4.078125,0 6.84375,1.45313 2.765625,1.40625 4.453125,3.79687 1.734375,2.39063 2.4375,5.625 0.75,3.1875 0.75,6.75 z"
         style="font-family:Calibri;-inkscape-font-specification:Calibri;text-align:center;text-anchor:middle;fill:#ffffff"
         id="path967" />
      <path
         d="m 114.31641,155.47461 q 0,0.375 -0.1875,0.65625 -0.1875,0.23437 -0.60938,0.42187 -0.42187,0.1875 -1.17187,0.28125 -0.75,0.0937 -1.92188,0.0937 -1.125,0 -1.875,-0.0937 -0.75,-0.0937 -1.21875,-0.28125 -0.42187,-0.1875 -0.60937,-0.42187 -0.14063,-0.28125 -0.14063,-0.65625 v -42.1875 q 0,-0.32813 0.14063,-0.60938 0.1875,-0.28125 0.60937,-0.46875 0.46875,-0.1875 1.21875,-0.28125 0.75,-0.0937 1.875,-0.0937 1.17188,0 1.92188,0.0937 0.75,0.0937 1.17187,0.28125 0.42188,0.1875 0.60938,0.46875 0.1875,0.28125 0.1875,0.60938 z m 0.89062,-56.437501 q 0,2.718751 -1.03125,3.703121 -1.03125,0.98438 -3.79687,0.98438 -2.71875,0 -3.75,-0.9375 -0.98438,-0.98438 -0.98438,-3.656251 0,-2.71875 1.03125,-3.703125 1.03125,-0.984375 3.79688,-0.984375 2.71875,0 3.70312,0.984375 1.03125,0.9375 1.03125,3.609375 z"
         style="font-family:Calibri;-inkscape-font-specification:Calibri;text-align:center;text-anchor:middle;fill:#ffffff"
         id="path969" />
      <path
         d="m 160.39453,155.52148 q 0,0.5625 -0.375,0.84375 -0.375,0.28125 -1.03125,0.42188 -0.65625,0.14062 -1.92187,0.14062 -1.21875,0 -1.96875,-0.14062 -0.70313,-0.14063 -1.03125,-0.42188 -0.32813,-0.28125 -0.32813,-0.84375 v -4.21875 q -2.76562,2.95313 -6.1875,4.59375 -3.375,1.64063 -7.17187,1.64063 -3.32813,0 -6.04688,-0.89063 -2.67187,-0.84375 -4.59375,-2.48437 -1.875,-1.64063 -2.95312,-4.03125 -1.03125,-2.39063 -1.03125,-5.4375 0,-3.5625 1.45312,-6.1875 1.45313,-2.625 4.17188,-4.35938 2.71875,-1.73437 6.65625,-2.57812 3.9375,-0.89063 8.85937,-0.89063 h 5.8125 v -3.28125 q 0,-2.4375 -0.51562,-4.3125 -0.51563,-1.875 -1.6875,-3.09375 -1.125,-1.26562 -2.95313,-1.875 -1.82812,-0.65625 -4.5,-0.65625 -2.85937,0 -5.15625,0.70313 -2.25,0.65625 -3.98437,1.5 -1.6875,0.79687 -2.85938,1.5 -1.125,0.65625 -1.6875,0.65625 -0.375,0 -0.65625,-0.1875 -0.28125,-0.1875 -0.51562,-0.5625 -0.1875,-0.375 -0.28125,-0.9375 -0.0937,-0.60938 -0.0937,-1.3125 0,-1.17188 0.14062,-1.82813 0.1875,-0.70312 0.79688,-1.3125 0.65625,-0.60937 2.20312,-1.40625 1.54688,-0.84375 3.5625,-1.5 2.01563,-0.70312 4.40625,-1.125 2.39063,-0.46875 4.82813,-0.46875 4.54687,0 7.73437,1.03125 3.1875,1.03125 5.15625,3.04688 1.96875,1.96875 2.85938,4.92187 0.89062,2.95313 0.89062,6.89063 z m -7.6875,-19.26562 h -6.60937 q -3.1875,0 -5.53125,0.5625 -2.34375,0.51562 -3.89063,1.59375 -1.54687,1.03125 -2.29687,2.53125 -0.70313,1.45312 -0.70313,3.375 0,3.28125 2.0625,5.25 2.10938,1.92187 5.85938,1.92187 3.04687,0 5.625,-1.54687 2.625,-1.54688 5.48437,-4.73438 z"
         style="font-family:Calibri;-inkscape-font-specification:Calibri;text-align:center;text-anchor:middle;fill:#ffffff"
         id="path971" />
      <path
         d="m 210.92578,155.47461 q 0,0.375 -0.1875,0.65625 -0.1875,0.23437 -0.60937,0.42187 -0.42188,0.1875 -1.17188,0.28125 -0.75,0.0937 -1.875,0.0937 -1.17187,0 -1.92187,-0.0937 -0.75,-0.0937 -1.17188,-0.28125 -0.42187,-0.1875 -0.60937,-0.42187 -0.1875,-0.28125 -0.1875,-0.65625 v -24.70313 q 0,-3.60937 -0.5625,-5.8125 -0.5625,-2.20312 -1.64063,-3.79687 -1.07812,-1.59375 -2.8125,-2.4375 -1.6875,-0.84375 -3.9375,-0.84375 -2.90625,0 -5.8125,2.0625 -2.90625,2.0625 -6.09375,6.04687 v 29.48438 q 0,0.375 -0.1875,0.65625 -0.1875,0.23437 -0.60937,0.42187 -0.42188,0.1875 -1.17188,0.28125 -0.75,0.0937 -1.92187,0.0937 -1.125,0 -1.875,-0.0937 -0.75,-0.0937 -1.21875,-0.28125 -0.42188,-0.1875 -0.60938,-0.42187 -0.14062,-0.28125 -0.14062,-0.65625 v -42.1875 q 0,-0.375 0.14062,-0.60938 0.14063,-0.28125 0.5625,-0.46875 0.42188,-0.23437 1.07813,-0.28125 0.65625,-0.0937 1.73437,-0.0937 1.03125,0 1.6875,0.0937 0.70313,0.0469 1.07813,0.28125 0.375,0.1875 0.51562,0.46875 0.1875,0.23438 0.1875,0.60938 v 5.57812 q 3.5625,-3.98437 7.07813,-5.8125 3.5625,-1.875 7.17187,-1.875 4.21875,0 7.07813,1.45313 2.90625,1.40625 4.6875,3.79687 1.78125,2.39063 2.53125,5.625 0.79687,3.1875 0.79687,7.6875 z"
         style="font-family:Calibri;-inkscape-font-specification:Calibri;text-align:center;text-anchor:middle;fill:#ffffff"
         id="path973" />
      <path
         d="m -50.027344,287.52148 q 0,0.5625 -0.375,0.84375 -0.375,0.28125 -1.03125,0.42188 -0.65625,0.14062 -1.921875,0.14062 -1.21875,0 -1.96875,-0.14062 -0.703125,-0.14063 -1.03125,-0.42188 -0.328125,-0.28125 -0.328125,-0.84375 v -4.21875 q -2.765625,2.95313 -6.1875,4.59375 -3.375,1.64063 -7.171875,1.64063 -3.328125,0 -6.046875,-0.89063 -2.671875,-0.84375 -4.59375,-2.48437 -1.875,-1.64063 -2.953125,-4.03125 -1.03125,-2.39063 -1.03125,-5.4375 0,-3.5625 1.453125,-6.1875 1.453125,-2.625 4.171875,-4.35938 2.71875,-1.73437 6.65625,-2.57812 3.9375,-0.89063 8.859375,-0.89063 h 5.8125 v -3.28125 q 0,-2.4375 -0.515625,-4.3125 -0.515625,-1.875 -1.6875,-3.09375 -1.125,-1.26562 -2.953125,-1.875 -1.828125,-0.65625 -4.5,-0.65625 -2.859375,0 -5.15625,0.70313 -2.25,0.65625 -3.984375,1.5 -1.6875,0.79687 -2.859375,1.5 -1.125,0.65625 -1.6875,0.65625 -0.375,0 -0.65625,-0.1875 -0.28125,-0.1875 -0.515625,-0.5625 -0.1875,-0.375 -0.28125,-0.9375 -0.09375,-0.60938 -0.09375,-1.3125 0,-1.17188 0.140625,-1.82813 0.1875,-0.70312 0.796875,-1.3125 0.65625,-0.60937 2.203125,-1.40625 1.546875,-0.84375 3.5625,-1.5 2.015625,-0.70312 4.40625,-1.125 2.390625,-0.46875 4.828125,-0.46875 4.546875,0 7.734375,1.03125 3.1875,1.03125 5.15625,3.04688 1.96875,1.96875 2.859375,4.92187 0.890625,2.95313 0.890625,6.89063 z m -7.6875,-19.26562 h -6.609375 q -3.1875,0 -5.53125,0.5625 -2.34375,0.51562 -3.890625,1.59375 -1.546875,1.03125 -2.296875,2.53125 -0.703125,1.45312 -0.703125,3.375 0,3.28125 2.0625,5.25 2.109375,1.92187 5.859375,1.92187 3.046875,0 5.625,-1.54687 2.625,-1.54688 5.484375,-4.73438 z"
         style="font-family:Calibri;-inkscape-font-specification:Calibri;text-align:center;text-anchor:middle;fill:#ffffff"
         id="path975" />
      <path
         d="m 26.753906,287.47461 q 0,0.375 -0.1875,0.65625 -0.1875,0.23437 -0.609375,0.42187 -0.421875,0.1875 -1.171875,0.28125 -0.75,0.0937 -1.875,0.0937 -1.171875,0 -1.921875,-0.0937 -0.75,-0.0937 -1.21875,-0.28125 -0.421875,-0.1875 -0.609375,-0.42187 -0.1875,-0.28125 -0.1875,-0.65625 v -25.64063 q 0,-2.67187 -0.46875,-4.875 -0.46875,-2.20312 -1.5,-3.79687 -1.03125,-1.59375 -2.625,-2.4375 -1.59375,-0.84375 -3.75,-0.84375 -2.6718748,0 -5.3906248,2.0625 -2.6718749,2.0625 -5.90624995,6.04687 v 29.48438 q 0,0.375 -0.1875,0.65625 -0.18749995,0.23437 -0.65624995,0.42187 -0.421875,0.1875 -1.1718751,0.28125 -0.75,0.0937 -1.8749999,0.0937 -1.078125,0 -1.875,-0.0937 -0.75,-0.0937 -1.21875,-0.28125 -0.4218751,-0.1875 -0.6093751,-0.42187 -0.140625,-0.28125 -0.140625,-0.65625 v -25.64063 q 0,-2.67187 -0.515625,-4.875 -0.515625,-2.20312 -1.5468752,-3.79687 -1.03125,-1.59375 -2.625,-2.4375 -1.546875,-0.84375 -3.703125,-0.84375 -2.671875,0 -5.390625,2.0625 -2.71875,2.0625 -5.90625,6.04687 v 29.48438 q 0,0.375 -0.1875,0.65625 -0.1875,0.23437 -0.609375,0.42187 -0.421875,0.1875 -1.171875,0.28125 -0.75,0.0937 -1.921875,0.0937 -1.125,0 -1.875,-0.0937 -0.75,-0.0937 -1.21875,-0.28125 -0.421875,-0.1875 -0.609375,-0.42187 -0.140625,-0.28125 -0.140625,-0.65625 v -42.1875 q 0,-0.375 0.140625,-0.60938 0.140625,-0.28125 0.5625,-0.46875 0.421875,-0.23437 1.078125,-0.28125 0.65625,-0.0937 1.734375,-0.0937 1.03125,0 1.6875,0.0937 0.703125,0.0469 1.078125,0.28125 0.375,0.1875 0.515625,0.46875 0.1875,0.23438 0.1875,0.60938 v 5.57812 q 3.5625,-3.98437 6.890625,-5.8125 3.375,-1.875 6.796875,-1.875 2.625,0 4.6875,0.60938 2.1093752,0.60937 3.7031253,1.73437 1.59375,1.07813 2.71875,2.625 1.1249999,1.5 1.8749999,3.375 2.10937505,-2.29687 3.984375,-3.89062 1.9218751,-1.59375 3.65625,-2.57813 1.78125,-0.98437 3.4218751,-1.40625 1.6874997,-0.46875 3.3749997,-0.46875 4.078125,0 6.84375,1.45313 2.765625,1.40625 4.453125,3.79687 1.734375,2.39063 2.4375,5.625 0.75,3.1875 0.75,6.75 z"
         style="font-family:Calibri;-inkscape-font-specification:Calibri;text-align:center;text-anchor:middle;fill:#ffffff"
         id="path977" />
      <path
         d="m 80.097656,265.91211 q 0,5.15625 -1.359375,9.51562 -1.359375,4.3125 -4.078125,7.45313 -2.671875,3.14062 -6.75,4.92187 -4.03125,1.73438 -9.375,1.73438 -5.203125,0 -9.09375,-1.54688 -3.84375,-1.54687 -6.421875,-4.5 -2.578125,-2.95312 -3.84375,-7.17187 -1.265625,-4.21875 -1.265625,-9.5625 0,-5.15625 1.3125,-9.46875 1.359375,-4.35938 4.03125,-7.5 2.71875,-3.14063 6.75,-4.875 4.03125,-1.73438 9.421875,-1.73438 5.203125,0 9.046875,1.54688 3.890625,1.54687 6.46875,4.5 2.578125,2.95312 3.84375,7.17187 1.3125,4.21875 1.3125,9.51563 z m -8.15625,0.51562 q 0,-3.42187 -0.65625,-6.46875 -0.609375,-3.04687 -2.0625,-5.34375 -1.453125,-2.29687 -3.9375,-3.60937 -2.484375,-1.35938 -6.1875,-1.35938 -3.421875,0 -5.90625,1.21875 -2.4375,1.21875 -4.03125,3.46875 -1.59375,2.20313 -2.390625,5.25 -0.75,3.04688 -0.75,6.65625 0,3.46875 0.609375,6.51563 0.65625,3.04687 2.109375,5.34375 1.5,2.25 3.984375,3.60937 2.484375,1.3125 6.1875,1.3125 3.375,0 5.859375,-1.21875 2.484375,-1.21875 4.078125,-3.42187 1.59375,-2.20313 2.34375,-5.25 0.75,-3.04688 0.75,-6.70313 z"
         style="font-family:Calibri;-inkscape-font-specification:Calibri;text-align:center;text-anchor:middle;fill:#ffffff"
         id="path979" />
      <path
         d="m 127.62891,287.47461 q 0,0.375 -0.1875,0.65625 -0.14063,0.28125 -0.5625,0.46875 -0.375,0.14062 -1.03125,0.23437 -0.65625,0.0937 -1.59375,0.0937 -0.98438,0 -1.64063,-0.0937 -0.65625,-0.0937 -1.07812,-0.23437 -0.42188,-0.1875 -0.60938,-0.46875 -0.1875,-0.28125 -0.1875,-0.65625 v -5.57813 q -3.32812,3.60938 -6.9375,5.625 -3.5625,2.01563 -7.82812,2.01563 -4.64063,0 -7.921879,-1.78125 -3.28125,-1.82813 -5.34375,-4.875 -2.015625,-3.09375 -2.953125,-7.21875 -0.9375,-4.17188 -0.9375,-8.76563 0,-5.4375 1.171875,-9.79687 1.171875,-4.40625 3.46875,-7.5 2.296875,-3.09375 5.671875,-4.73438 3.421874,-1.6875 7.875004,-1.6875 3.70312,0 6.75,1.64063 3.09375,1.59375 6.09375,4.73437 v -24.51562 q 0,-0.32813 0.14062,-0.60938 0.1875,-0.32812 0.65625,-0.46875 0.46875,-0.1875 1.17188,-0.28125 0.75,-0.14062 1.875,-0.14062 1.17187,0 1.92187,0.14062 0.75,0.0937 1.17188,0.28125 0.42187,0.14063 0.60937,0.46875 0.23438,0.28125 0.23438,0.60938 z m -7.78125,-29.67188 q -3.14063,-3.89062 -6.09375,-5.90625 -2.90625,-2.0625 -6.09375,-2.0625 -2.95313,0 -5.01563,1.40625 -2.0625,1.40625 -3.374999,3.70313 -1.265625,2.29687 -1.875,5.20312 -0.5625,2.90625 -0.5625,5.90625 0,3.1875 0.46875,6.23438 0.515625,3.04687 1.734375,5.4375 1.218754,2.34375 3.234374,3.79687 2.01563,1.40625 5.0625,1.40625 1.54688,0 2.95313,-0.42187 1.45312,-0.42188 2.95312,-1.40625 1.5,-0.98438 3.14063,-2.53125 1.64062,-1.59375 3.46875,-3.89063 z"
         style="font-family:Calibri;-inkscape-font-specification:Calibri;text-align:center;text-anchor:middle;fill:#ffffff"
         id="path981" />
      <path
         d="m 177.92578,264.55273 q 0,1.82813 -0.9375,2.625 -0.89062,0.75 -2.0625,0.75 h -27.65625 q 0,3.51563 0.70313,6.32813 0.70312,2.8125 2.34375,4.82812 1.64062,2.01563 4.26562,3.09375 2.625,1.07813 6.42188,1.07813 3,0 5.34375,-0.46875 2.34375,-0.51563 4.03125,-1.125 1.73437,-0.60938 2.8125,-1.07813 1.125,-0.51562 1.6875,-0.51562 0.32812,0 0.5625,0.1875 0.28125,0.14062 0.42187,0.46875 0.14063,0.32812 0.1875,0.9375 0.0937,0.5625 0.0937,1.40625 0,0.60937 -0.0469,1.07812 -0.0469,0.42188 -0.14063,0.79688 -0.0469,0.32812 -0.23437,0.60937 -0.14063,0.28125 -0.42188,0.5625 -0.23437,0.23438 -1.5,0.84375 -1.26562,0.5625 -3.28125,1.125 -2.01562,0.5625 -4.6875,0.98438 -2.625,0.46875 -5.625,0.46875 -5.20312,0 -9.14062,-1.45313 -3.89063,-1.45312 -6.5625,-4.3125 -2.67188,-2.85937 -4.03125,-7.17187 -1.35938,-4.3125 -1.35938,-10.03125 0,-5.4375 1.40625,-9.75 1.40625,-4.35938 4.03125,-7.35938 2.67188,-3.04687 6.42188,-4.64062 3.75,-1.64063 8.39062,-1.64063 4.96875,0 8.4375,1.59375 3.51563,1.59375 5.76563,4.3125 2.25,2.67188 3.28125,6.32813 1.07812,3.60937 1.07812,7.73437 z m -7.78125,-2.29687 q 0.14063,-6.09375 -2.71875,-9.5625 -2.8125,-3.46875 -8.39062,-3.46875 -2.85938,0 -5.01563,1.07812 -2.15625,1.07813 -3.60937,2.85938 -1.45313,1.78125 -2.25,4.17187 -0.79688,2.34375 -0.89063,4.92188 z"
         style="font-family:Calibri;-inkscape-font-specification:Calibri;text-align:center;text-anchor:middle;fill:#ffffff"
         id="path983" />
      <path
         d="m 228.92578,265.91211 q 0,5.15625 -1.35937,9.51562 -1.35938,4.3125 -4.07813,7.45313 -2.67187,3.14062 -6.75,4.92187 -4.03125,1.73438 -9.375,1.73438 -5.20312,0 -9.09375,-1.54688 -3.84375,-1.54687 -6.42187,-4.5 -2.57813,-2.95312 -3.84375,-7.17187 -1.26563,-4.21875 -1.26563,-9.5625 0,-5.15625 1.3125,-9.46875 1.35938,-4.35938 4.03125,-7.5 2.71875,-3.14063 6.75,-4.875 4.03125,-1.73438 9.42188,-1.73438 5.20312,0 9.04687,1.54688 3.89063,1.54687 6.46875,4.5 2.57813,2.95312 3.84375,7.17187 1.3125,4.21875 1.3125,9.51563 z m -8.15625,0.51562 q 0,-3.42187 -0.65625,-6.46875 -0.60937,-3.04687 -2.0625,-5.34375 -1.45312,-2.29687 -3.9375,-3.60937 -2.48437,-1.35938 -6.1875,-1.35938 -3.42187,0 -5.90625,1.21875 -2.4375,1.21875 -4.03125,3.46875 -1.59375,2.20313 -2.39062,5.25 -0.75,3.04688 -0.75,6.65625 0,3.46875 0.60937,6.51563 0.65625,3.04687 2.10938,5.34375 1.5,2.25 3.98437,3.60937 2.48438,1.3125 6.1875,1.3125 3.375,0 5.85938,-1.21875 2.48437,-1.21875 4.07812,-3.42187 1.59375,-2.20313 2.34375,-5.25 0.75,-3.04688 0.75,-6.70313 z"
         style="font-family:Calibri;-inkscape-font-specification:Calibri;text-align:center;text-anchor:middle;fill:#ffffff"
         id="path985" />
    </g>
  </g>
  <g
     inkscape:groupmode="layer"
     id="layer1"
     inkscape:label="Line" />
</svg>
