<!-- Exported by Character Map UWP -->
<svg height="100%" viewBox="214 306 596 596" width="100%" xmlns="http://www.w3.org/2000/svg" xmlns:xlink="http://www.w3.org/1999/xlink">
  <path d="M790,582C795.333,582 800,584.333 804,589C808,593.667 810,598.667 810,604C810,609.333 808,614.333 804,619C800,623.667 795.333,626 790,626L534,626L534,882C534,887.333 531.667,892 527,896C522.333,900 517.333,902 512,902C506.667,902 501.667,900 497,896C492.333,892 490,887.333 490,882L490,626L234,626C231.333,626 228.667,625.333 226,624C223.333,622.667 221,621 219,619C217,617 215.667,614.667 215,612C214.333,609.333 214,606.667 214,604C214,598.667 216,593.667 220,589C224,584.333 228.667,582 234,582L490,582L490,326C490,320.667 492.333,316 497,312C501.667,308 506.667,306 512,306C517.333,306 522.333,308 527,312C531.667,316 534,320.667 534,326L534,582Z" fill="#000000" fill-opacity="1">
  </path>
</svg>