<!-- Exported by Character Map UWP -->
<svg height="100%" viewBox="38 220 854 854" width="100%" xmlns="http://www.w3.org/2000/svg" xmlns:xlink="http://www.w3.org/1999/xlink">
  <path d="M890,234C891.333,236.667 892,239.333 892,242L892,626C892,630 891,633.333 889,636C887,638.667 884.333,641 881,643C877.667,645 874,646 870,646C864.667,646 859.667,644 855,640C850.333,636 848,631.333 848,626L848,292L372,768C368,772 363,774 357,774C351,774 346,772 342,768C338,764 336,759 336,753C336,747 338,742 342,738L818,262L486,262C480.667,262 475.667,260 471,256C466.333,252 464,247 464,241C464,235 466.333,230 471,226C475.667,222 480.667,220 486,220L870,220C879.333,220 886,224.667 890,234ZM656,1074L60,1074C53.3333,1074 48,1071.67 44,1067C40,1062.33 38,1057.33 38,1052L38,454C38,448.667 40,444 44,440C48,436 53.3333,434 60,434L486,434C491.333,434 496.333,436 501,440C505.667,444 508,449 508,455C508,461 505.667,466 501,470C496.333,474 491.333,476 486,476L80,476L80,1030L636,1030L636,626C636,619.333 638,614 642,610C646,606 651,604 657,604C663,604 668,606 672,610C676,614 678,619.333 678,626L678,1052C678,1056 677,1059.67 675,1063C673,1066.33 670.333,1069 667,1071C663.667,1073 660,1074 656,1074Z" fill="#000000" fill-opacity="1">
  </path>
</svg>