<!-- Exported by Character Map UWP -->
<svg height="100%" viewBox="42 92 944 1024" width="100%" xmlns="http://www.w3.org/2000/svg" xmlns:xlink="http://www.w3.org/1999/xlink">
  <path d="M192,1116C188,1116 184,1114.67 180,1112C173.333,1108 170,1102 170,1094C170,1090 171.333,1086.67 174,1084L814,102C818,95.3334 824,92 832,92C837.333,92 842,94.3334 846,99C850,103.667 852,108.667 852,114C852,118 851.333,121.333 850,124L210,1106C206,1112.67 200,1116 192,1116ZM790,860L486,860C480.667,860 476,858 472,854C468,850 466,845 466,839C466,833 468,828 472,824C476,820 480.667,818 486,818L790,818C831.333,818 866.333,803.333 895,774C923.667,744.667 938,709.333 938,668C938,626.667 923.667,591.333 895,562C866.333,532.667 831.333,518 790,518L782,518C770,518 763.333,512.667 762,502C755.333,479.333 746.667,458 736,438C734.667,434 734,430.667 734,428C734,421.333 736,416 740,412C744,408 749.333,406 756,406C764,406 770,410 774,418C783.333,436.667 791.333,456 798,476C850,477.333 894.333,496.667 931,534C967.667,571.333 986,616 986,668C986,721.333 967.333,766.667 930,804C892.667,841.333 847.333,860 794,860C792.667,860 791.333,860 790,860ZM234,856L230,856C178,845.333 133.667,817.333 97,772C60.3333,726.667 42,678 42,626C42,563.333 64,509 108,463C152,417 205.333,392.667 268,390C292,355.333 328,325.333 376,300C424,274.667 469.333,262 512,262C538.667,262 565.333,266 592,274C602.667,276.667 608,283.333 608,294C608,296.667 607.333,298.667 606,300C603.333,310.667 596.667,316 586,316C583.333,316 581.333,315.333 580,314C558.667,308.667 536,306 512,306C486.667,306 460,311.333 432,322C404,332.667 378,347 354,365C330,383 311.333,402.667 298,424C295.333,430.667 290,434 282,434C280.667,434 279.333,434 278,434C278,434 277.333,434 276,434C222.667,434 177.333,452.667 140,490C102.667,527.333 84,572.667 84,626C84,668.667 99,708.333 129,745C159,781.667 195.333,804.667 238,814C250,815.333 256,822 256,834C256,835.333 256,836.667 256,838C253.333,850 246,856 234,856Z" fill="#000000" fill-opacity="1">
  </path>
</svg>