<!-- Exported by Character Map UWP -->
<svg height="100%" viewBox="42 134 940 940" width="100%" xmlns="http://www.w3.org/2000/svg" xmlns:xlink="http://www.w3.org/1999/xlink">
  <path d="M768,880C762.667,880 757.667,878 753,874C748.333,870 746,864.667 746,858L746,772L564,674C556,670 552,664 552,656L552,610C552,606 553.333,602 556,598L612,510L612,394C602.667,378 588.667,363 570,349C551.333,335 532.667,327.333 514,326L512,326L512,326C506.667,326 501.667,323.667 497,319C492.333,314.333 490,309 490,303C490,297 492,292 496,288C500,284 505.333,282 512,282L514,282C539.333,282 564,290.667 588,308C612,325.333 627.667,339.667 635,351C642.333,362.333 648,372 652,380C653.333,382.667 654,386 654,390L654,516C654,520 653.333,524 652,528L594,616L594,644L778,742C786,746 790,752 790,760L790,858C790,862 789,865.667 787,869C785,872.333 782.333,875 779,877C775.667,879 772,880 768,880ZM271,874C266.333,878 261.333,880 256,880C250.667,880 245.667,878 241,874C236.333,870 234,864.667 234,858L234,760C234,752 238,746 246,742L430,644L430,616L372,528C370.667,524 370,520 370,516L370,390C370,386 370.667,382.667 372,380C376,372 381.667,362.333 389,351C396.333,339.667 412,325.333 436,308C460,290.667 485.333,282 512,282C517.333,282 522.333,284 527,288C531.667,292 534,297.333 534,304C532.667,317.333 525.333,324.667 512,326L510,326C491.333,327.333 472.667,335 454,349C435.333,363 421.333,378 412,394L412,510L468,598C470.667,600.667 472,604.667 472,610L472,656C472,664 468,670 460,674L278,772L278,858C278,864.667 275.667,870 271,874ZM844,936C752,1028 641.333,1074 512,1074C382.667,1074 272,1028 180,936C88,844 42,733.333 42,604C42,474.667 88,364 180,272C272,180 382.667,134 512,134C641.333,134 752,180 844,272C936,364 982,474.667 982,604C982,733.333 936,844 844,936ZM813,303C729.667,219.667 629.333,178 512,178C394.667,178 294.333,219.667 211,303C127.667,386.333 86,486.667 86,604C86,721.333 127.667,821.667 211,905C294.333,988.333 394.667,1030 512,1030C629.333,1030 729.667,988.333 813,905C896.333,821.667 938,721.333 938,604C938,486.667 896.333,386.333 813,303Z" fill="#000000" fill-opacity="1">
  </path>
</svg>