<!-- Exported by Character Map UWP -->
<svg height="100%" viewBox="44 178 940 896" width="100%" xmlns="http://www.w3.org/2000/svg" xmlns:xlink="http://www.w3.org/1999/xlink">
  <path d="M978,654C982,658 984,662.667 984,668C984,673.333 982,678.333 978,683C974,687.667 969,690 963,690C957,690 951.333,687.333 946,682L512,230L80,682C76,687.333 71,690 65,690C59,690 54,687.667 50,683C46,678.333 44,673.333 44,668C44,662.667 46,658 50,654L496,184C500,180 505.333,178 512,178C518.667,178 524,180 528,184L682,346L682,198C682,192.667 684.333,188 689,184C693.667,180 698.667,178 704,178L832,178C837.333,178 842.333,180 847,184C851.667,188 854,192.667 854,198L854,518C854,519.333 853.333,520.667 852,522ZM726,220L726,390L810,480L810,220ZM817,632C821.667,628 826.667,626 832,626C837.333,626 842.333,628 847,632C851.667,636 854,640.667 854,646L854,1052C854,1057.33 851.667,1062.33 847,1067C842.333,1071.67 837.333,1074 832,1074L192,1074C186.667,1074 181.667,1071.67 177,1067C172.333,1062.33 170,1057.33 170,1052L170,646C170,642 171,638.667 173,636C175,633.333 177.667,631 181,629C184.333,627 188,626 192,626C197.333,626 202.333,628 207,632C211.667,636 214,640.667 214,646L214,1030L384,1030L384,754C384,747.333 386,742 390,738C394,734 399.333,732 406,732L618,732C624.667,732 630,734 634,738C638,742 640,747.333 640,754L640,1030L810,1030L810,646C810,640.667 812.333,636 817,632ZM426,774L426,1030L598,1030L598,774Z" fill="#000000" fill-opacity="1">
  </path>
</svg>