<!-- Exported by Character Map UWP -->
<svg height="100%" viewBox="2 92 1022 1024" width="100%" xmlns="http://www.w3.org/2000/svg" xmlns:xlink="http://www.w3.org/1999/xlink">
  <path d="M496,506C500,499.333 506,496 514,496C518,496 521.333,497.333 524,500C530.667,504 534,510 534,518C534,522 532.667,526 530,530L426,676C420.667,682.667 414.667,686 408,686C398.667,686 392,681.333 388,672C368,622.667 344,574.667 316,528L232,496C222.667,492 218,485.333 218,476L218,450C218,444.667 219.333,440.667 222,438L256,386L256,320C253.333,316 250.333,311.667 247,307C243.667,302.333 239.667,298 235,294C230.333,290 225.333,286.333 220,283C214.667,279.667 209.333,277.333 204,276C198.667,274.667 193.333,273.333 188,272C174.667,273.333 161.333,278.667 148,288C134.667,297.333 125.333,308 120,320L120,386L154,438C156.667,440.667 158,444.667 158,450L158,476C158,477.333 158,478.667 158,480C158,488 154.667,494 148,498L62,542C50,547.333 44,556.667 44,570L44,770L84,848C85.3333,850.667 86.6667,853.333 88,856L106,1092C107.333,1093.33 108,1094 108,1094C108,1107.33 101.333,1114.67 88,1116C76,1114.67 69.3333,1108 68,1096L46,864L4,784C2.66667,781.333 2,778 2,774L2,570C2,556.667 6.33333,543.667 15,531C23.6667,518.333 33.3333,509.333 44,504L118,464L118,456L84,406C81.3333,402 80,398 80,394L80,316C78.6667,314.667 78,313.333 78,312C78,310.667 78.6667,309.333 80,308C88,288 102.667,270.333 124,255C145.333,239.667 166.667,231.333 188,230C210.667,231.333 232.667,239.667 254,255C275.333,270.333 290,288 298,308C298,309.333 298,310.667 298,312C298,313.333 298,314.667 298,316L298,394C298,398 296.667,402 294,406L260,456L260,462L336,490C353.333,500.667 379.333,544.667 414,622ZM1004,92C1017.33,93.3334 1024,100.667 1024,114L1024,1094C1024,1100.67 1022,1106 1018,1110C1014,1114 1009,1116 1003,1116C997,1116 992,1114 988,1110C984,1106 982,1100.67 982,1094L982,552C963.333,544 924,526 864,498C856,494 852,487.333 852,478L852,450C852,446 853.333,442 856,438L892,388L892,322C886.667,308.667 877.333,297.333 864,288C850.667,278.667 837.333,274 824,274C810.667,275.333 797.333,280.667 784,290C770.667,299.333 761.333,310 756,322L756,388L790,438C792.667,442 794,446 794,450L794,478C794,486 790.667,492 784,496L704,544C690.667,549.333 684,559.333 684,574L684,770L726,852C726,854.667 726.667,857.333 728,860L746,1092C747.333,1093.33 748,1094 748,1094C748,1107.33 741.333,1114.67 728,1116C716,1114.67 709.333,1108 708,1096L688,866L644,784C642.667,781.333 642,778 642,774L642,574C642,560.667 646.333,547.333 655,534C663.667,520.667 673.333,511.333 684,506L756,466L756,456L722,406C719.333,403.333 718,399.333 718,394L718,316C718,314.667 718,313.667 718,313C718,312.333 718,311.333 718,310C723.333,296.667 732,284 744,272C756,260 769.333,250.333 784,243C798.667,235.667 813.333,232 828,232C838.667,232 849.667,234.333 861,239C872.333,243.667 882.667,249.333 892,256C901.333,262.667 910,270.667 918,280C926,289.333 932,299.333 936,310C936,311.333 936,312.333 936,313C936,313.667 936,314.667 936,316L936,394C936,398 934.667,402 932,406L898,456L898,464L984,506L984,134L600,134L600,326C600,332.667 597.667,338 593,342C588.333,346 583.333,348 578,348C574,348 570.333,347 567,345C563.667,343 561,340.333 559,337C557,333.667 556,330 556,326L556,114C556,107.333 558.333,102 563,98C567.667,94 572.667,92 578,92ZM324,838C337.333,839.333 344,846.667 344,860C344,861.333 344,862 344,862L322,1096C320.667,1109.33 313.333,1116 300,1116C286.667,1116 280,1108.67 280,1094L300,860C301.333,845.333 309.333,838 324,838Z" fill="#000000" fill-opacity="1">
  </path>
</svg>