<!-- Exported by Character Map UWP -->
<svg height="100%" viewBox="50 134 924 940" width="100%" xmlns="http://www.w3.org/2000/svg" xmlns:xlink="http://www.w3.org/1999/xlink">
  <path d="M632,724C598.667,757.333 558.667,774 512,774C465.333,774 425.333,757.333 392,724C358.667,690.667 342,650.667 342,604C342,557.333 358.667,517.333 392,484C425.333,450.667 465.333,434 512,434C558.667,434 598.667,450.667 632,484C665.333,517.333 682,557.333 682,604C682,650.667 665.333,690.667 632,724ZM602,514C576.667,488.667 546.667,476 512,476C477.333,476 447.333,488.667 422,514C396.667,539.333 384,569.333 384,604C384,638.667 396.667,668.667 422,694C447.333,719.333 477.333,732 512,732C546.667,732 576.667,719.333 602,694C627.333,668.667 640,638.667 640,604C640,569.333 627.333,539.333 602,514ZM618,1074L406,1074C399.333,1074 394,1071.67 390,1067C386,1062.33 384,1057.33 384,1052L384,944C346.667,929.333 312.667,909.333 282,884L188,938C185.333,940.667 182,942 178,942C170,942 163.333,938.667 158,932L52,746C50.6667,743.333 50,740 50,736C50,728 53.3333,722 60,718L154,662C151.333,643.333 150,624 150,604C150,584 151.333,564.667 154,546L60,490C53.3333,486 50,480 50,472C50,468 50.6667,464.667 52,462L158,276C163.333,269.333 170,266 178,266C182,266 185.333,267.333 188,270L282,324C312.667,298.667 346.667,278.667 384,264L384,156C384,150.667 386,145.667 390,141C394,136.333 399.333,134 406,134L618,134C624.667,134 630,136.333 634,141C638,145.667 640,150.667 640,156L640,264C677.333,278.667 711.333,298.667 742,324L836,270C838.667,267.333 842,266 846,266C855.333,266 862,269.333 866,276L972,462C973.333,464.667 974,468 974,472C974,480 970.667,486 964,490L870,546C872.667,564.667 874,584 874,604C874,624 872.667,643.333 870,662L964,718C970.667,722 974,728 974,736C974,740 973.333,743.333 972,746L866,932C862,938.667 855.333,942 846,942C842,942 838.667,940.667 836,938L742,884C711.333,909.333 677.333,929.333 640,944L640,1052C640,1056 639,1059.67 637,1063C635,1066.33 632.333,1069 629,1071C625.667,1073 622,1074 618,1074ZM426,1030L598,1030L598,928C598,917.333 602.667,910.667 612,908C654.667,893.333 692,871.333 724,842C729.333,838 734.667,836 740,836C742.667,836 746,837.333 750,840L838,892L924,744L836,692C828,688 824,682 824,674C824,672.667 824.667,671.333 826,670C830,648.667 832,626.667 832,604C832,581.333 830,559.333 826,538C824.667,536.667 824,535.333 824,534C824,526 828,520 836,516L924,464L838,316L750,368C746,370.667 742.667,372 740,372C733.333,372 728,370 724,366C692,336.667 654.667,314.667 612,300C602.667,297.333 598,290.667 598,280L598,178L426,178L426,280C426,290.667 421.333,297.333 412,300C369.333,314.667 332,336.667 300,366C296,370 290.667,372 284,372C281.333,372 278,370.667 274,368L186,316L100,464L188,516C196,520 200,526 200,534C200,535.333 199.333,536.667 198,538C194,559.333 192,581.333 192,604C192,626.667 194,648.667 198,670C199.333,671.333 200,672.667 200,674C200,682 196,688 188,692L100,744L186,892L274,840C278,837.333 281.333,836 284,836C290.667,836 296,838 300,842C332,871.333 369.333,893.333 412,908C421.333,910.667 426,917.333 426,928Z" fill="#000000" fill-opacity="1">
  </path>
</svg>