<!-- Exported by Character Map UWP -->
<svg height="100%" viewBox="86 178 896 896" width="100%" xmlns="http://www.w3.org/2000/svg" xmlns:xlink="http://www.w3.org/1999/xlink">
  <path d="M676,1066C672,1071.33 667,1074 661,1074C655,1074 650,1071.33 646,1066L92,512C88,508 86,503.333 86,498L86,198C86,192.667 88,188 92,184C96,180 100.667,178 106,178L406,178C411.333,178 416,180 420,184L974,738C979.333,742 982,747 982,753C982,759 979.333,764 974,768ZM128,488L662,1022L930,754L396,220L128,220ZM395,487C374.333,507.667 349.333,518 320,518C290.667,518 265.667,507.667 245,487C224.333,466.333 214,441.333 214,412C214,382.667 224.333,357.667 245,337C265.667,316.333 290.667,306 320,306C349.333,306 374.333,316.333 395,337C415.667,357.667 426,382.667 426,412C426,441.333 415.667,466.333 395,487ZM365,367C352.333,354.333 337.333,348 320,348C302.667,348 287.667,354.333 275,367C262.333,379.667 256,394.667 256,412C256,429.333 262.333,444.333 275,457C287.667,469.667 302.667,476 320,476C337.333,476 352.333,469.667 365,457C377.667,444.333 384,429.333 384,412C384,394.667 377.667,379.667 365,367Z" fill="#000000" fill-opacity="1">
  </path>
</svg>