<!-- Exported by Character Map UWP -->
<svg height="100%" viewBox="38 134 948 940" width="100%" xmlns="http://www.w3.org/2000/svg" xmlns:xlink="http://www.w3.org/1999/xlink">
  <path d="M690,554L554,420L554,1052C554,1057.33 552,1062.33 548,1067C544,1071.67 539,1074 533,1074C527,1074 522,1071.67 518,1067C514,1062.33 512,1057.33 512,1052L512,420L378,554C374,558 368.667,560 362,560C358,560 354.667,559 352,557C349.333,555 347,552.333 345,549C343,545.667 342,542 342,538C342,532.667 344,528 348,524L518,352C520.667,350.667 523.333,349.333 526,348C528.667,346.667 531.333,346 534,346C536.667,346 539.333,346.667 542,348C544.667,349.333 546.667,351.333 548,354L718,526C723.333,530 726,534.667 726,540C726,545.333 723.667,550.333 719,555C714.333,559.667 709.333,562 704,562C698.667,562 694,559.333 690,554ZM798,348C850,349.333 894.333,369 931,407C967.667,445 986,489.333 986,540C986,574.667 977.333,607 960,637C942.667,667 919.333,690.333 890,707C860.667,723.667 828.667,732 794,732C792.667,732 791.333,732 790,732L662,732C655.333,732 650,730 646,726C642,722 640,717 640,711C640,705 642,700 646,696C650,692 655.333,690 662,690L790,690C831.333,690 866.333,675.333 895,646C923.667,616.667 938,581.667 938,541C938,500.333 923.667,465.333 895,436C866.333,406.667 831.333,392 790,392L782,392C771.333,392 764.667,386 762,374C755.333,348.667 743.667,324 727,300C710.333,276 691,255 669,237C647,219 622.333,205 595,195C567.667,185 540,180 512,180C488,180 462,185.333 434,196C406,206.667 380,220.667 356,238C332,255.333 312.667,274.667 298,296C292.667,302.667 286,306 278,306C224.667,306 179.333,324.667 142,362C104.667,399.333 86,444.333 86,497C86,549.667 104.667,595 142,633C179.333,671 224.667,690 278,690L406,690C411.333,690 416,692 420,696C424,700 426,705 426,711C426,717 424,722 420,726C416,730 411.333,732 406,732L278,732C275.333,732 273.333,732 272,732C208,732 153,709 107,663C61,617 38,562 38,498C38,434 60.3333,379 105,333C149.667,287 204,263.333 268,262C292,227.333 328,197.333 376,172C424,146.667 469.333,134 512,134C573.333,134 632,155 688,197C744,239 780.667,289.333 798,348Z" fill="#000000" fill-opacity="1">
  </path>
</svg>