<!-- Exported by Character Map UWP -->
<svg height="100%" viewBox="298 306 384 596" width="100%" xmlns="http://www.w3.org/2000/svg" xmlns:xlink="http://www.w3.org/1999/xlink">
  <path d="M662,902C656.667,902 652,900.667 648,898L306,620C300.667,616 298,610.667 298,604C298,597.333 300.667,592 306,588L648,310C652,307.333 656.667,306 662,306C667.333,306 672,308 676,312C680,316 682,320.667 682,326C682,332.667 679.333,338.667 674,344L354,604L674,864C679.333,869.333 682,875.333 682,882C682,887.333 680,892 676,896C672,900 667.333,902 662,902Z" fill="#000000" fill-opacity="1">
  </path>
</svg>