<!-- Exported by Character Map UWP -->
<svg height="100%" viewBox="42 92 940 938" width="100%" xmlns="http://www.w3.org/2000/svg" xmlns:xlink="http://www.w3.org/1999/xlink">
  <path d="M960,178C965.333,178 970.333,180 975,184C979.667,188 982,192.667 982,198L982,1010C982,1015.33 979.667,1020 975,1024C970.333,1028 965.333,1030 960,1030L64,1030C58.6667,1030 53.6667,1028 49,1024C44.3333,1020 42,1015.33 42,1010L42,198C42,192.667 44.3333,188 49,184C53.6667,180 58.6667,178 64,178L192,178C197.333,178 202.333,180 207,184C211.667,188 214,193 214,199C214,205 211.667,210 207,214C202.333,218 197.333,220 192,220L86,220L86,434L938,434L938,220L832,220C826.667,220 821.667,218 817,214C812.333,210 810,205 810,199C810,193 812.333,188 817,184C821.667,180 826.667,178 832,178ZM86,988L938,988L938,476L86,476ZM362,220C358,220 354.667,219 352,217C349.333,215 347,212.333 345,209C343,205.667 342,202 342,198C342,192.667 344,188 348,184C352,180 356.667,178 362,178L662,178C667.333,178 672,180 676,184C680,188 682,193 682,199C682,205 680,210 676,214C672,218 667.333,220 662,220ZM292,299C288,303.667 283,306 277,306C271,306 266,303.667 262,299C258,294.333 256,289.333 256,284L256,114C256,107.333 258,102 262,98C266,94 271,92 277,92C283,92 288,94 292,98C296,102 298,107.333 298,114L298,284C298,289.333 296,294.333 292,299ZM762,299C758,303.667 753,306 747,306C741,306 736,303.667 732,299C728,294.333 726,289.333 726,284L726,114C726,107.333 728,102 732,98C736,94 741,92 747,92C753,92 758,94 762,98C766,102 768,107.333 768,114L768,284C768,289.333 766,294.333 762,299Z" fill="#000000" fill-opacity="1">
  </path>
</svg>