<!-- Exported by Character Map UWP -->
<svg height="100%" viewBox="38 134 948 982" width="100%" xmlns="http://www.w3.org/2000/svg" xmlns:xlink="http://www.w3.org/1999/xlink">
  <path d="M690,910C694,904.667 698.667,902 704,902C709.333,902 714.333,904.333 719,909C723.667,913.667 726,918.667 726,924C726,929.333 723.333,934 718,938L548,1110C546.667,1111.33 544.667,1112.67 542,1114C539.333,1115.33 536.667,1116 534,1116C531.333,1116 528.667,1115.33 526,1114C523.333,1112.67 520.667,1111.33 518,1110L348,938C344,934 342,929.333 342,924C342,918.667 344,913.667 348,909C352,904.333 357,902 363,902C369,902 374,904.667 378,910L512,1044L512,540C512,534.667 514,529.667 518,525C522,520.333 527,518 533,518C539,518 544,520.333 548,525C552,529.667 554,534.667 554,540L554,1044ZM798,348C850,349.333 894.333,369 931,407C967.667,445 986,489.333 986,540C986,574.667 977.333,607 960,637C942.667,667 919.333,690.333 890,707C860.667,723.667 828.667,732 794,732C792.667,732 791.333,732 790,732L662,732C655.333,732 650,730 646,726C642,722 640,717 640,711C640,705 642,700 646,696C650,692 655.333,690 662,690L790,690C831.333,690 866.333,675.333 895,646C923.667,616.667 938,581.667 938,541C938,500.333 923.667,465.333 895,436C866.333,406.667 831.333,392 790,392L782,392C770,392 763.333,386 762,374C755.333,348.667 743.667,324 727,300C710.333,276 691,255 669,237C647,219 622.333,205 595,195C567.667,185 540,180 512,180C488,180 462,185.333 434,196C406,206.667 380,220.667 356,238C332,255.333 312.667,274.667 298,296C294,302.667 288,306 280,306C280,306 279.333,306 278,306C224.667,306 179.333,324.667 142,362C104.667,399.333 86,444.333 86,497C86,549.667 104.667,595 142,633C179.333,671 224.667,690 278,690L406,690C411.333,690 416,692 420,696C424,700 426,705 426,711C426,717 424,722 420,726C416,730 411.333,732 406,732L278,732C275.333,732 273.333,732 272,732C208,732 153,709 107,663C61,617 38,562 38,498C38,434 60.3333,379 105,333C149.667,287 204,263.333 268,262C292,227.333 328,197.333 376,172C424,146.667 469.333,134 512,134C573.333,134 632,155 688,197C744,239 780.667,289.333 798,348Z" fill="#000000" fill-opacity="1">
  </path>
</svg>