<!-- Exported by Character Map UWP -->
<svg height="100%" viewBox="342 306 384 596" width="100%" xmlns="http://www.w3.org/2000/svg" xmlns:xlink="http://www.w3.org/1999/xlink">
  <path d="M362,902C356.667,902 352,900 348,896C344,892 342,887.333 342,882C342,875.333 344.667,869.333 350,864L670,604L350,344C344.667,338.667 342,332.667 342,326C342,320.667 344,316 348,312C352,308 356.667,306 362,306C367.333,306 372,307.333 376,310L718,588C723.333,592 726,597.333 726,604C726,610.667 723.333,616 718,620L376,898C372,900.667 367.333,902 362,902Z" fill="#000000" fill-opacity="1">
  </path>
</svg>