<!-- Exported by Character Map UWP -->
<svg height="100%" viewBox="35 178 990 852" width="100%" xmlns="http://www.w3.org/2000/svg" xmlns:xlink="http://www.w3.org/1999/xlink">
  <path d="M64,1030C52,1030 44.6667,1024 42,1012C16.6667,834.667 54,692.667 154,586C258,474 406,422.667 598,432L598,198C598,192.667 600,188 604,184C608,180 613,178 619,178C625,178 630,180 634,184L1018,546C1022,550 1024,555.333 1024,562C1024,567.333 1022,572 1018,576L634,982C630,986 625,988 619,988C613,988 608,986 604,982C600,978 598,972.667 598,966L598,726C562,716.667 525.333,712 488,712C458.667,712 424.333,717 385,727C345.667,737 313.333,749.333 288,764C245.333,786.667 204,822.333 164,871C124,919.667 97.3333,967.333 84,1014C81.3333,1024.67 74.6667,1030 64,1030ZM558,474C396.667,474 272.667,520.667 186,614C155.333,647.333 129.667,691.667 109,747C88.3333,802.333 78,852 78,896C78,902.667 78,908.667 78,914C96.6667,880.667 124.333,845.667 161,809C197.667,772.333 232.667,745.333 266,728C295.333,710.667 331.333,696.333 374,685C416.667,673.667 454.667,668 488,668C534.667,668 580.667,675.333 626,690C635.333,694 640,700.667 640,710L640,914L972,562L640,248L640,454C640,460.667 638,466 634,470C628.667,474 623.333,476 618,476C598,474.667 578,474 558,474Z" fill="#000000" fill-opacity="1">
  </path>
</svg>