<!-- Exported by Character Map UWP -->
<svg height="100%" viewBox="42 220 940 896" width="100%" xmlns="http://www.w3.org/2000/svg" xmlns:xlink="http://www.w3.org/1999/xlink">
  <path d="M448,1116C446.667,1116 445.333,1116 444,1116C442.667,1116 441.333,1116 440,1116C430.667,1112 426,1105.33 426,1096C426,1096 426,1095.33 426,1094L426,946L64,946C58.6667,946 53.6667,943.667 49,939C44.3333,934.333 42,929.333 42,924L42,242C42,235.333 44.3333,230 49,226C53.6667,222 58.6667,220 64,220L960,220C965.333,220 970.333,222 975,226C979.667,230 982,235.333 982,242L982,924C982,929.333 979.667,934.333 975,939C970.333,943.667 965.333,946 960,946L628,946L462,1110C458,1114 453.333,1116 448,1116ZM86,902L448,902C453.333,902 458.333,904.333 463,909C467.667,913.667 470,918.667 470,924L470,1044L604,910C608,904.667 612.667,902 618,902L938,902L938,262L86,262ZM512,668C488,668 467.667,659.667 451,643C434.333,626.333 426,606.333 426,583C426,559.667 434.333,539.667 451,523C467.667,506.333 488,498 512,498C536,498 556.333,506.333 573,523C589.667,539.667 598,559.333 598,582C598,598 594,612.667 586,626C578,639.333 567.667,649.667 555,657C542.333,664.333 528,668 512,668ZM542,553C534,544.333 524,540 512,540C500,540 490,544.333 482,553C474,561.667 470,571.667 470,583C470,594.333 474,604.333 482,613C490,621.667 500,626 512,626C524,626 534,621.667 542,613C550,604.333 554,594.333 554,583C554,571.667 550,561.667 542,553ZM785,643C768.333,659.667 748.333,668 725,668C701.667,668 681.667,659.667 665,643C648.333,626.333 640,606.333 640,583C640,559.667 648.333,539.667 665,523C681.667,506.333 701.667,498 725,498C748.333,498 768.333,506.333 785,523C801.667,539.667 810,559.667 810,583C810,606.333 801.667,626.333 785,643ZM755,553C746.333,544.333 736.333,540 725,540C713.667,540 703.667,544.333 695,553C686.333,561.667 682,571.667 682,583C682,594.333 686.333,604.333 695,613C703.667,621.667 713.667,626 725,626C736.333,626 746.333,621.667 755,613C763.667,604.333 768,594.333 768,583C768,571.667 763.667,561.667 755,553ZM359,643C342.333,659.667 322.333,668 299,668C275.667,668 255.667,659.667 239,643C222.333,626.333 214,606.333 214,583C214,559.667 222.333,539.667 239,523C255.667,506.333 275.667,498 299,498C322.333,498 342.333,506.333 359,523C375.667,539.667 384,559.667 384,583C384,606.333 375.667,626.333 359,643ZM329,553C320.333,544.333 310.333,540 299,540C287.667,540 277.667,544.333 269,553C260.333,561.667 256,571.667 256,583C256,594.333 260.333,604.333 269,613C277.667,621.667 287.667,626 299,626C310.333,626 320.333,621.667 329,613C337.667,604.333 342,594.333 342,583C342,571.667 337.667,561.667 329,553Z" fill="#000000" fill-opacity="1">
  </path>
</svg>