<?xml version="1.0" encoding="UTF-8" standalone="no"?>
<!-- Exported by Character Map UWP -->

<svg
   height="20"
   viewBox="2 92 20 20"
   width="20"
   version="1.1"
   id="svg1059"
   sodipodi:docname="MinistryIcon.svg"
   inkscape:version="1.2.2 (732a01da63, 2022-12-09)"
   xmlns:inkscape="http://www.inkscape.org/namespaces/inkscape"
   xmlns:sodipodi="http://sodipodi.sourceforge.net/DTD/sodipodi-0.dtd"
   xmlns="http://www.w3.org/2000/svg"
   xmlns:svg="http://www.w3.org/2000/svg">
  <defs
     id="defs1063" />
  <sodipodi:namedview
     id="namedview1061"
     pagecolor="#ffffff"
     bordercolor="#000000"
     borderopacity="0.25"
     inkscape:showpageshadow="2"
     inkscape:pageopacity="0.0"
     inkscape:pagecheckerboard="0"
     inkscape:deskcolor="#d1d1d1"
     showgrid="false"
     inkscape:zoom="30.19346"
     inkscape:cx="17.305072"
     inkscape:cy="13.744699"
     inkscape:window-width="1920"
     inkscape:window-height="1057"
     inkscape:window-x="1912"
     inkscape:window-y="-8"
     inkscape:window-maximized="1"
     inkscape:current-layer="layer3" />
  <g
     inkscape:groupmode="layer"
     id="layer1"
     inkscape:label="Layer 1"
     style="display:none">
    <path
       d="m 11.65245,100.16931 c 0.076,-0.12668 0.190009,-0.190007 0.342016,-0.190007 0.07601,0 0.139333,0.02528 0.190008,0.07604 0.126681,0.076 0.190011,0.19001 0.190011,0.34202 0,0.076 -0.02534,0.15202 -0.07601,0.22802 l -1.976098,2.77414 c -0.101329,0.12667 -0.215338,0.19001 -0.3420178,0.19001 -0.1773345,0 -0.3040148,-0.0886 -0.3800188,-0.26603 -0.3800142,-0.93736 -0.8360369,-1.8494 -1.3680636,-2.73613 L 6.6362009,99.979313 c -0.1773364,-0.07604 -0.266014,-0.20268 -0.266014,-0.38002 v -0.494025 c 0,-0.10133 0.02533,-0.177338 0.076004,-0.22801 L 7.0922235,97.889203 V 96.635144 C 7.0415495,96.559134 6.9845424,96.476798 6.9212124,96.388124 6.8578831,96.299444 6.7818792,96.217115 6.6932017,96.141108 6.6045241,96.065106 6.5095194,95.995426 6.4081875,95.932097 6.3068549,95.86874 6.2055042,95.824416 6.1041723,95.799092 c -0.1013316,-0.02533 -0.2026825,-0.05067 -0.3040151,-0.076 -0.2533396,0.02533 -0.5066984,0.12668 -0.760038,0.304017 -0.2533395,0.177331 -0.4306946,0.38002 -0.5320273,0.608029 v 1.254059 l 0.6460329,0.988054 c 0.050672,0.0507 0.076004,0.126681 0.076004,0.22801 v 0.494022 c 0,0.02528 0,0.05066 0,0.07604 0,0.15201 -0.06333,0.26602 -0.1900096,0.342017 l -1.6340815,0.83604 c -0.2280114,0.10132 -0.342017,0.27868 -0.342017,0.53202 v 3.8002 l 0.7600379,1.48207 c 0.025335,0.0508 0.050672,0.10132 0.076003,0.15202 l 0.342017,4.4842 c 0.02533,0.0253 0.038,0.038 0.038,0.038 0,0.25328 -0.1266795,0.39275 -0.3800196,0.41801 -0.2280107,-0.0253 -0.3546844,-0.152 -0.3800184,-0.38001 l -0.41802,-4.40828 -0.7980399,-1.52007 c -0.025335,-0.0508 -0.038,-0.11395 -0.038,-0.19 v -3.8762 c 0,-0.25334 0.082338,-0.50035 0.2470123,-0.74104 0.1646756,-0.24067 0.3483499,-0.41168 0.5510275,-0.51302 L 4.4700908,99.371243 V 99.219238 L 3.8240584,98.269189 c -0.050672,-0.07601 -0.076004,-0.152008 -0.076004,-0.228016 v -1.482068 c -0.025336,-0.02531 -0.038,-0.0507 -0.038,-0.07601 0,-0.02531 0.012664,-0.0507 0.038,-0.076 0.1520068,-0.38002 0.4306939,-0.715712 0.8360417,-1.007051 0.4053464,-0.291342 0.8107136,-0.449696 1.2160607,-0.475023 0.4306939,0.02534 0.8487154,0.183681 1.2540618,0.475023 0.4053476,0.291339 0.6840347,0.627031 0.8360423,1.007051 0,0.02531 0,0.0507 0,0.076 0,0.02532 0,0.0507 0,0.07601 v 1.482068 c 0,0.07601 -0.02533,0.152009 -0.076005,0.228016 l -0.6460312,0.950049 v 0.114006 l 1.4440711,0.532027 c 0.3293433,0.202679 0.8233686,1.038729 1.4820762,2.508119 z m 9.652476,-7.866392 c 0.253285,0.02534 0.380021,0.164681 0.380021,0.418021 v 18.620931 c 0,0.12674 -0.03799,0.22802 -0.114006,0.30401 -0.07601,0.076 -0.17101,0.11395 -0.285014,0.11395 -0.114007,0 -0.209011,-0.038 -0.285013,-0.11395 -0.07601,-0.076 -0.114007,-0.17727 -0.114007,-0.30401 v -10.29852 c -0.35469,-0.15201 -1.102054,-0.49402 -2.24211,-1.02604 -0.152009,-0.07604 -0.228013,-0.202677 -0.228013,-0.380017 v -0.532036 c 0,-0.07601 0.02534,-0.152008 0.07601,-0.22801 L 19.176829,97.9272 v -1.254065 c -0.10133,-0.253338 -0.278687,-0.468699 -0.532027,-0.64603 -0.253341,-0.177337 -0.506699,-0.266014 -0.760038,-0.266014 -0.253339,0.02534 -0.506698,0.126677 -0.760037,0.304015 -0.253339,0.177337 -0.430695,0.380019 -0.532028,0.608029 V 97.9272 l 0.646033,0.950047 c 0.05067,0.076 0.07601,0.152002 0.07601,0.22801 v 0.532036 c 0,0.152 -0.06333,0.265999 -0.190008,0.34201 l -1.520076,0.912037 c -0.253338,0.10132 -0.380019,0.29135 -0.380019,0.57003 v 3.7242 l 0.798041,1.55807 c 0,0.0508 0.01267,0.10131 0.038,0.15202 l 0.342017,4.4082 c 0.02534,0.0253 0.03799,0.038 0.03799,0.038 0,0.25328 -0.126678,0.39274 -0.38002,0.41801 -0.22801,-0.0253 -0.354689,-0.152 -0.380016,-0.38001 l -0.38002,-4.37022 -0.836041,-1.55808 c -0.02534,-0.0508 -0.03799,-0.11395 -0.03799,-0.19001 v -3.80019 c 0,-0.25334 0.08233,-0.50669 0.247011,-0.76003 0.164681,-0.25334 0.348345,-0.4307 0.551028,-0.53203 l 1.368069,-0.760033 v -0.190013 l -0.646033,-0.950048 c -0.05067,-0.0507 -0.07601,-0.12668 -0.07601,-0.228016 v -1.482057 c 0,-0.02532 0,-0.04429 0,-0.05704 0,-0.01266 0,-0.03164 0,-0.05704 0.101329,-0.253338 0.266012,-0.494025 0.494023,-0.722035 0.228013,-0.228011 0.481353,-0.411694 0.760039,-0.551028 0.278687,-0.139334 0.557354,-0.209009 0.836041,-0.209009 0.202684,0 0.411694,0.04433 0.627032,0.133006 0.215337,0.08867 0.411691,0.196336 0.58903,0.323016 0.177334,0.126678 0.342016,0.278686 0.494023,0.456023 0.152009,0.177338 0.266013,0.367347 0.342018,0.570027 0,0.02532 0,0.04429 0,0.05704 0,0.01266 0,0.03165 0,0.05704 v 1.482068 c 0,0.07601 -0.02534,0.152009 -0.07601,0.228016 l -0.64603,0.950047 v 0.152006 l 1.63408,0.79804 v -7.068353 h -7.296362 v 3.648184 c 0,0.126673 -0.04433,0.228011 -0.133007,0.304012 -0.08867,0.07601 -0.183681,0.114006 -0.285014,0.114006 -0.07601,0 -0.14568,-0.01899 -0.209012,-0.05704 -0.06333,-0.03797 -0.114006,-0.08868 -0.152005,-0.15201 -0.03799,-0.06335 -0.05699,-0.133007 -0.05699,-0.209009 v -4.02823 c 0,-0.126679 0.04432,-0.228012 0.133006,-0.304016 0.08867,-0.076 0.183683,-0.114006 0.285016,-0.114006 z M 8.3842851,106.47764 c 0.2533402,0.0254 0.3800198,0.16468 0.3800198,0.41802 0,0.0254 0,0.0379 0,0.0379 l -0.4180217,4.44622 c -0.025329,0.25328 -0.1646805,0.38002 -0.4180209,0.38002 -0.2533387,0 -0.380019,-0.13927 -0.380019,-0.41802 l 0.380019,-4.44621 c 0.02533,-0.27869 0.1773364,-0.41802 0.4560228,-0.41802 z"
       fill="#ffffff"
       fill-opacity="1"
       id="path1057"
       style="fill:#000000;fill-opacity:1;stroke-width:0.0188976;stroke-dasharray:none"
       class="UnoptimicedTransforms" />
  </g>
  <g
     inkscape:groupmode="layer"
     id="layer3"
     inkscape:label="Layer 3">
    <rect
       style="fill:#b2ac61;fill-opacity:1"
       id="rect1799"
       width="8.2435598"
       height="19.016394"
       x="13.100702"
       y="92.655739" />
    <path
       id="rect1801"
       style="fill:#b2ac61"
       d="m 4.2950818,96.074942 1.873537,-0.749414 1.4947194,1.207571 -0.846092,2.584371 1.4628078,1.12121 1.6550552,2.81685 -1.543801,3.71442 -0.3575947,4.79938 -4.1820891,-0.024 L 3.4956903,106.798 2.7494151,105.30211 2.936768,100.99297 4.7943448,99.310957 4.1134006,98.089725 Z"
       sodipodi:nodetypes="ccccccccccccccc" />
  </g>
  <g
     inkscape:groupmode="layer"
     id="layer2"
     inkscape:label="Layer 2">
    <path
       style="fill:none;fill-opacity:1;stroke:#000000;stroke-width:0.566929;stroke-linecap:round;stroke-dasharray:none;stroke-opacity:1"
       d="m 3.911007,111.44731 -0.4309133,-4.57143 -0.824356,-1.61124 0.037471,-4.06558 c 0,0 -0.056206,-0.3747 0.3559719,-0.59953 0.412178,-0.22482 1.6299766,-0.84309 1.6299766,-0.84309 0,0 0.3934426,-0.337236 0.206089,-0.618267 L 4.1358317,98.014051 c 0,0 -0.2997658,-1.030444 -0.018735,-1.517564 0.2810305,-0.487119 0.9929743,-1.180328 1.442623,-1.199063 0.4496487,-0.01873 0.9929742,0.07494 1.3489461,0.449649 0.3559719,0.374707 0.5433255,0.430913 0.5807963,0.80562 0.037471,0.374708 0.074941,1.161593 -0.074941,1.386418 -0.1498829,0.224824 -0.5995316,1.105385 -0.5995316,1.105385 l 0.018735,0.562061 1.5362997,0.655743 c 0,0 0.5212537,0.65515 0.9221928,1.36533 0.3903616,0.69144 0.6608202,1.43698 0.6515774,1.53865 -0.018736,0.20609 1.9859486,-2.73537 1.9859486,-2.73537"
       id="path5869"
       sodipodi:nodetypes="ccccccscscssscccssc" />
    <path
       style="fill:none;fill-opacity:1;stroke:#000000;stroke-width:0.566929;stroke-linecap:round;stroke-dasharray:none;stroke-opacity:1"
       d="m 7.9578455,111.42857 0.3559719,-4.62763"
       id="path6249" />
    <path
       style="fill:none;fill-opacity:1;stroke:#000000;stroke-width:0.566929;stroke-linecap:round;stroke-dasharray:none;stroke-opacity:1"
       d="m 16.051522,111.35363 -0.355972,-4.44029 -0.899297,-1.68618 0.01874,-4.00937 0.299765,-0.52459 1.77986,-1.049172 0.01873,-0.580796 -0.693209,-1.105386 -0.101425,-0.739651 0.138894,-0.674869 0.355972,-0.599532 0.485249,-0.369088 0.554563,-0.146134 0.507036,0.0067 0.617087,0.161893 0.505854,0.402809 0.299766,0.533958 0.140388,0.804652 -0.07481,0.544295 -0.430913,0.730679 -0.355972,0.52459 0.03747,0.468384 2.360656,1.086658"
       id="path6251"
       sodipodi:nodetypes="ccccccccccccccccccccccc" />
    <path
       style="fill:none;fill-opacity:1;stroke:#000000;stroke-width:0.566929;stroke-linecap:round;stroke-dasharray:none;stroke-opacity:1"
       d="M 21.316159,111.46604 V 92.711944 l -8.131147,0.01873 0.03747,4.065574"
       id="path6253" />
  </g>
</svg>
