<!-- Exported by Character Map UWP -->
<svg height="100%" viewBox="170 134 684 940" width="100%" xmlns="http://www.w3.org/2000/svg" xmlns:xlink="http://www.w3.org/1999/xlink">
  <path d="M832,518C846.667,519.333 854,526.667 854,540L854,1052C854,1057.33 851.667,1062.33 847,1067C842.333,1071.67 837.333,1074 832,1074L192,1074C186.667,1074 181.667,1071.67 177,1067C172.333,1062.33 170,1057.33 170,1052L170,540C170,534.667 172.333,529.667 177,525C181.667,520.333 186.667,518 192,518L362,518C366,518 369,518.667 371,520C373,521.333 375,523 377,525C379,527 380.667,529.333 382,532C383.333,534.667 384,537.333 384,540C384,545.333 382,550.333 378,555C374,559.667 368.667,562 362,562L214,562L214,1030L810,1030L810,562L662,562C656.667,562 651.667,559.667 647,555C642.333,550.333 640,545.333 640,540C640,534.667 642.333,529.667 647,525C651.667,520.333 656.667,518 662,518ZM334,362C330,366 325.333,368 320,368C314.667,368 309.667,366 305,362C300.333,358 298,353 298,347C298,341 300.667,336 306,332L498,140C499.333,137.333 501.333,135.667 504,135C506.667,134.333 509.333,134 512,134C514.667,134 517.333,134 520,134C522.667,135.333 524.667,138 526,142L718,334C723.333,338 726,342.667 726,348C726,353.333 723.667,358.333 719,363C714.333,367.667 709.333,370 704,370C698.667,370 694,367.333 690,362L534,208L534,796C534,801.333 531.667,806.333 527,811C522.333,815.667 517.333,818 512,818C506.667,818 501.667,815.667 497,811C492.333,806.333 490,801.333 490,796L490,208Z" fill="#000000" fill-opacity="1">
  </path>
</svg>