<!-- Exported by Character Map UWP -->
<svg height="100%" viewBox="86 134 852 896" width="100%" xmlns="http://www.w3.org/2000/svg" xmlns:xlink="http://www.w3.org/1999/xlink">
  <path d="M292,142L462,312C467.333,316 470,321 470,327C470,333 467.667,338 463,342C458.333,346 453.333,348 448,348C442.667,348 438,346 434,342L298,208L298,1010C298,1015.33 296,1020 292,1024C288,1028 283,1030 277,1030C271,1030 266,1028 262,1024C258,1020 256,1015.33 256,1010L256,208L122,340C118,344 113,346 107,346C101,346 96,344 92,340C88,336 86,331 86,325C86,319 88,314 92,310L262,140C264.667,137.333 267.333,135.667 270,135C272.667,134.333 275.333,134 278,134C280.667,134 283.333,134 286,134C288.667,135.333 290.667,138 292,142ZM917,818C923,818 928,820 932,824C936,828 938,833 938,839C938,845 936,850 932,854L762,1024C759.333,1026.67 756.667,1028.33 754,1029C751.333,1029.67 748.667,1030 746,1030C743.333,1030 740.667,1029.67 738,1029C735.333,1028.33 733.333,1026.67 732,1024L562,854C556.667,850 554,845 554,839C554,833 556.333,828 561,824C565.667,820 570.667,818 576,818C581.333,818 586,820 590,824L726,958L726,156C726,150.667 728,145.667 732,141C736,136.333 741,134 747,134C753,134 758,136.333 762,141C766,145.667 768,150.667 768,156L768,958L902,824C906,820 911,818 917,818Z" fill="#000000" fill-opacity="1">
  </path>
</svg>