<!-- Exported by Character Map UWP -->
<svg height="100%" viewBox="64 136 896 894" width="100%" xmlns="http://www.w3.org/2000/svg" xmlns:xlink="http://www.w3.org/1999/xlink">
  <path d="M790,1030C784.667,1030 780,1028.67 776,1026L512,826L248,1026C244,1028.67 239.333,1030 234,1030C228.667,1030 224,1028 220,1024C216,1020 214,1015.33 214,1010C214,1007.33 214,1004.67 214,1002L320,680L72,492C66.6667,488 64,482.667 64,476C64,470.667 66,465.667 70,461C74,456.333 79.3333,454 86,454L392,454L492,150C496,140.667 502.667,136 512,136C521.333,136 528,140.667 532,150L632,454L938,454C944.667,454 950,456.333 954,461C958,465.667 960,470.667 960,476C960,482.667 957.333,488 952,492L704,680L810,1002C810,1004.67 810,1007.33 810,1010C810,1012.67 809.667,1015.33 809,1018C808.333,1020.67 807,1023 805,1025C803,1027 800.667,1028.33 798,1029C795.333,1029.67 792.667,1030 790,1030ZM500,782C502.667,779.333 506.667,778 512,778C517.333,778 521.333,779.333 524,782L748,952L660,678C658.667,676.667 658,674.667 658,672C658,665.333 660.667,660 666,656L876,498L616,498C605.333,498 598.667,492.667 596,482L512,226L428,482C425.333,492.667 418.667,498 408,498L148,498L358,656C363.333,660 366,665.333 366,672C366,674.667 365.333,676.667 364,678L276,952Z" fill="#000000" fill-opacity="1">
  </path>
</svg>