<!-- Exported by Character Map UWP -->
<svg height="100%" viewBox="146 238 856 856" width="100%" xmlns="http://www.w3.org/2000/svg" xmlns:xlink="http://www.w3.org/1999/xlink">
  <path d="M996,1058C1000,1062 1002,1067 1002,1073C1002,1079 1000,1084 996,1088C992,1092 987,1094 981,1094C975,1094 970,1092 966,1088L752,876L752,874C724,899.333 686.333,921 639,939C591.667,957 548.667,966 510,966C410,966 324.333,930.667 253,860C181.667,789.333 146,703.667 146,603C146,502.333 181.667,416.333 253,345C324.333,273.667 410,238 510,238C576.667,238 638,254.333 694,287C750,319.667 794,364 826,420C858,476 874,536.667 874,602C874,640.667 865,683.667 847,731C829,778.333 807.333,816 782,844L784,844ZM286,830C348.667,892.667 424,924 512,924C600,924 675.333,892.667 738,830C800.667,767.333 832,692 832,604C832,516 800.667,440.667 738,378C675.333,315.333 600,284 512,284C424,284 348.667,315.333 286,378C223.333,440.667 192,516 192,604C192,692 223.333,767.333 286,830ZM682,582C688.667,582 694,584.333 698,589C702,593.667 704,598.667 704,604C704,609.333 702,614.333 698,619C694,623.667 688.667,626 682,626L342,626C335.333,626 330,623.667 326,619C322,614.333 320,609.333 320,604C320,598.667 322,593.667 326,589C330,584.333 335.333,582 342,582Z" fill="#000000" fill-opacity="1">
  </path>
</svg>